<svg width="15" height="7" viewBox="0 0 15 7" fill="none" xmlns="http://www.w3.org/2000/svg">
<path d="M7.23707 0.00256491C7.38445 0.0153542 7.52391 0.0745497 7.63535 0.171747L14.096 5.75936C14.243 5.87884 14.3352 6.05278 14.3516 6.24144C14.3678 6.43011 14.3069 6.61733 14.1825 6.76008C14.0581 6.90295 13.8812 6.98918 13.692 6.99905C13.5029 7.00891 13.3179 6.94168 13.1794 6.81257L7.17706 1.62314L1.17475 6.81257C1.03626 6.94168 0.851246 7.00891 0.662103 6.99905C0.47296 6.98918 0.295977 6.90295 0.171628 6.76008C0.0472694 6.61733 -0.0136299 6.43012 0.00256854 6.24144C0.0188899 6.05278 0.111094 5.87884 0.258105 5.75936L6.71878 0.171747C6.86153 0.0473881 7.04861 -0.0136333 7.23716 0.00256491H7.23707Z" fill="#2B911A"/>
</svg>
