<svg width="24" height="24" viewBox="0 0 24 24" fill="none" xmlns="http://www.w3.org/2000/svg">
<path d="M12.3462 3.02097C11.961 3.02097 11.5751 2.87415 11.2811 2.57985C10.6923 1.99155 10.6872 1.03232 11.2758 0.443848C11.8641 -0.144452 12.8127 -0.149637 13.4007 0.438491L13.4112 0.449037C14 1.03747 14 1.99155 13.4112 2.57985C13.1174 2.87382 12.7314 3.02098 12.3462 3.02098L12.3462 3.02097Z" fill="#2B901A"/>
<path d="M19.119 9.79371C18.7343 9.79371 18.3509 9.64806 18.0564 9.35575L18.0338 9.33315C17.4437 8.74652 17.4405 7.79283 18.0273 7.20234C18.6127 6.6122 19.5673 6.60903 20.1578 7.19564L20.181 7.21791C20.771 7.80454 20.7738 8.75824 20.1876 9.34872C19.8938 9.64504 19.5059 9.79371 19.119 9.79371L19.119 9.79371ZM15.7323 6.40701C15.3474 6.40701 14.9614 6.26019 14.6672 5.96588L14.6446 5.94362C14.0563 5.35519 14.0563 4.40111 14.6446 3.81281C15.2329 3.22451 16.1873 3.22451 16.7751 3.81281L16.7978 3.83507C17.3863 4.4235 17.3863 5.37724 16.7978 5.96588C16.5042 6.25986 16.118 6.40701 15.7323 6.40701H15.7323Z" fill="#2B901A"/>
<path d="M22.4853 13.1708C22.1005 13.1708 21.7152 13.0253 21.4226 12.7325C20.9875 12.2974 20.8712 11.6659 21.0774 11.1285C21.1501 10.9322 21.2651 10.7487 21.4226 10.5906C22.0106 10.0027 22.9593 9.99731 23.5476 10.5853L23.5588 10.5958C24.1471 11.1842 24.1471 12.1383 23.5588 12.727C23.2636 13.0228 22.8746 13.1708 22.4853 13.1708L22.4853 13.1708Z" fill="#2B901A"/>
<path d="M15.71 19.9509C15.3247 19.9509 14.9384 19.8041 14.6449 19.5098C14.0562 18.9215 14.0562 17.9671 14.6449 17.3788L14.6675 17.3567C15.2553 16.7679 16.2102 16.7679 16.798 17.3567C17.3863 17.945 17.3863 18.8989 16.798 19.4872L16.7754 19.5098C16.4813 19.8041 16.0951 19.9509 15.71 19.9509V19.9509ZM19.0961 16.5648C18.7112 16.5648 18.325 16.4182 18.031 16.1239C17.4427 15.5355 17.4427 14.5812 18.031 13.9929L18.0531 13.9701C18.6411 13.3824 19.5958 13.3824 20.1836 13.9701C20.772 14.5584 20.772 15.5128 20.1836 16.1016L20.1615 16.1239C19.8677 16.4177 19.4821 16.5648 19.0961 16.5648V16.5648Z" fill="#2B901A"/>
<path d="M12.3355 23.3259C11.9506 23.3259 11.5644 23.1792 11.2704 22.8846C10.6817 22.2966 10.6817 21.3426 11.2704 20.7541C11.8587 20.1657 12.8173 20.1602 13.4054 20.7488C13.9945 21.3375 13.9999 22.2863 13.4108 22.8741L13.4002 22.8846C13.1066 23.1786 12.721 23.3259 12.3355 23.3259L12.3355 23.3259Z" fill="#2B901A"/>
<path d="M7.57498 2.71958C7.26661 2.71958 6.95793 2.60172 6.72268 2.36651C6.25211 1.89594 6.24676 1.12734 6.71733 0.656599C7.18777 0.186499 7.94595 0.180971 8.41652 0.651242L8.42707 0.661788C8.89798 1.13236 8.89798 1.8956 8.42707 2.36652C8.19203 2.60173 7.88347 2.71958 7.57494 2.71958L7.57498 2.71958Z" fill="#2B901A"/>
<path d="M14.3473 9.49241C14.0406 9.49241 13.7327 9.37556 13.4982 9.14202L13.4749 9.11925C13.0023 8.65001 13 7.88728 13.4699 7.41482C13.9391 6.94271 14.702 6.93988 15.1743 7.40947L15.1976 7.43173C15.6699 7.90098 15.6723 8.66387 15.2029 9.13616C14.9665 9.37338 14.6572 9.49241 14.3473 9.49241L14.3473 9.49241ZM10.961 6.10584C10.6527 6.10584 10.344 5.98832 10.1087 5.75277L10.0865 5.73051C9.61555 5.25959 9.61555 4.49669 10.0865 4.02578C10.5566 3.55521 11.3206 3.55521 11.7909 4.02578L11.8132 4.04805C12.2836 4.51862 12.2836 5.28186 11.8132 5.75277C11.5784 5.98798 11.2697 6.10584 10.961 6.10584Z" fill="#2B901A"/>
<path d="M17.7141 12.8695C17.4057 12.8695 17.0985 12.7537 16.8643 12.5193C16.5161 12.1711 16.4232 11.6651 16.5886 11.2351C16.6463 11.0774 16.7387 10.9302 16.8643 10.8035C17.3354 10.3334 18.0933 10.3281 18.5635 10.7981L18.5744 10.8087C19.0449 11.2793 19.0449 12.0429 18.5744 12.5136C18.3373 12.751 18.0251 12.8695 17.7141 12.8695L17.7141 12.8695Z" fill="#2B901A"/>
<path d="M10.9393 19.6502C10.6321 19.6502 10.3249 19.5336 10.0897 19.3005C9.61755 18.8306 9.61489 18.0674 10.0841 17.5956L10.1064 17.5728C10.5758 17.1007 11.3389 17.0981 11.8111 17.5675C12.2832 18.0367 12.2856 18.8 11.8167 19.2724L11.7944 19.295C11.5588 19.5322 11.2491 19.6502 10.9393 19.6502ZM14.3253 16.2642C14.0174 16.2642 13.7087 16.1468 13.473 15.9116C13.0021 15.4402 13.0021 14.6766 13.473 14.2067L13.4956 14.1841C13.9662 13.714 14.7301 13.714 15.2003 14.1841C15.6713 14.655 15.6713 15.4184 15.2003 15.889L15.1776 15.9121C14.9425 16.1468 14.6337 16.2642 14.3253 16.2642L14.3253 16.2642Z" fill="#2B901A"/>
<path d="M7.56462 23.0246C7.25625 23.0246 6.94756 22.9072 6.71232 22.6715C6.2414 22.2006 6.2414 21.4374 6.71232 20.9668C7.18276 20.4962 7.95149 20.4912 8.4221 20.9618C8.89267 21.4327 8.8982 22.1901 8.42746 22.661L8.41658 22.6715C8.18136 22.9072 7.8728 23.0246 7.56462 23.0246L7.56462 23.0246Z" fill="#2B901A"/>
<path d="M3.87127 2.4179C3.63991 2.4179 3.40854 2.32984 3.2321 2.15322C2.87886 1.80049 2.87351 1.22275 3.22674 0.870037C3.57914 0.517302 4.1465 0.511276 4.49973 0.86468L4.51027 0.875227C4.86334 1.22796 4.86334 1.80051 4.51027 2.1534C4.33399 2.32985 4.10263 2.41791 3.87127 2.41791L3.87127 2.4179Z" fill="#2B901A"/>
<path d="M10.644 9.19077C10.4126 9.19077 10.1813 9.10237 10.0048 8.92576L9.98255 8.90349C9.62948 8.55042 9.62948 7.97821 9.98255 7.62532C10.3356 7.27225 10.9078 7.27225 11.2607 7.62532L11.283 7.64759C11.6361 8.00066 11.6361 8.57287 11.283 8.92576C11.1065 9.10254 10.8752 9.19077 10.644 9.19077ZM7.25742 5.80437C7.02606 5.80437 6.79486 5.71631 6.61824 5.53969L6.59598 5.51709C6.24291 5.16436 6.24291 4.59181 6.59598 4.23892C6.94905 3.88585 7.52126 3.88585 7.87415 4.23892L7.89641 4.26152C8.24948 4.61426 8.24948 5.18681 7.89641 5.53969C7.72013 5.71631 7.48877 5.80437 7.25742 5.80437Z" fill="#2B901A"/>
<path d="M14.0104 12.5681C13.7795 12.5681 13.5493 12.4814 13.3742 12.3061C13.1124 12.0442 13.0416 11.6644 13.1666 11.3415C13.2108 11.2229 13.2794 11.1119 13.3742 11.017C13.7268 10.6643 14.2943 10.6582 14.6474 11.0117L14.6579 11.0222C15.0111 11.3749 15.0111 11.9471 14.6579 12.3004C14.4798 12.479 14.2451 12.5681 14.0104 12.5681L14.0104 12.5681Z" fill="#2B901A"/>
<path d="M7.23504 19.3491C7.00468 19.3491 6.77415 19.2617 6.59805 19.0861C6.24381 18.7342 6.24197 18.1622 6.59404 17.808L6.6163 17.7857C6.9682 17.4313 7.54073 17.4298 7.89447 17.7808C8.24871 18.1329 8.25039 18.7056 7.89849 19.0593L7.87622 19.0821C7.69994 19.2604 7.46741 19.3491 7.23504 19.3491V19.3491ZM10.6214 15.9629C10.3901 15.9629 10.1587 15.8745 9.98226 15.6979C9.6292 15.3448 9.6292 14.7726 9.98226 14.4202L10.0045 14.3971C10.3576 14.0441 10.9298 14.0441 11.2827 14.3971C11.6358 14.7502 11.6358 15.3224 11.2827 15.6753L11.2604 15.6979C11.0842 15.8747 10.8528 15.9629 10.6214 15.9629V15.9629Z" fill="#2B901A"/>
<path d="M3.86089 22.7231C3.62953 22.7231 3.39816 22.6352 3.22171 22.4581C2.86848 22.1049 2.86848 21.5331 3.22171 21.1801C3.57428 20.8269 4.15253 20.8218 4.50524 21.1747C4.85831 21.5283 4.8635 22.0947 4.5106 22.4479L4.50005 22.4588C4.32343 22.6352 4.09207 22.7231 3.86088 22.7231L3.86089 22.7231Z" fill="#2B901A"/>
<path d="M0.613209 2.11698C0.458854 2.11698 0.304839 2.05822 0.187149 1.94053C-0.0482307 1.70515 -0.0535877 1.31825 0.18196 1.08305C0.416671 0.847834 0.79353 0.842142 1.0289 1.07769L1.03911 1.08807C1.27433 1.32295 1.27433 1.70483 1.03911 1.94037C0.921591 2.05789 0.767237 2.11699 0.613221 2.11699L0.613209 2.11698Z" fill="#2B901A"/>
<path d="M7.38593 8.88967C7.23225 8.88967 7.07873 8.83157 6.96138 8.71473L6.93861 8.69246C6.7024 8.45775 6.70106 8.07639 6.93577 7.84016C7.17064 7.60428 7.55252 7.60277 7.78807 7.83731L7.81067 7.85992C8.04705 8.09463 8.04822 8.47599 7.81351 8.71221C7.69566 8.83057 7.54063 8.88967 7.38594 8.88967L7.38593 8.88967ZM3.99971 5.50344C3.84535 5.50344 3.69134 5.44468 3.57365 5.32683L3.55105 5.30422C3.31567 5.06901 3.31567 4.68747 3.55105 4.45193C3.78643 4.21655 4.1678 4.21655 4.40335 4.45193L4.42595 4.47453C4.66133 4.70974 4.66133 5.09128 4.42595 5.32683C4.30792 5.44468 4.15373 5.50344 3.99972 5.50344H3.99971Z" fill="#2B901A"/>
<path d="M10.7524 12.2671C10.5984 12.2671 10.4452 12.2095 10.329 12.0929C10.1531 11.9179 10.1059 11.6638 10.1906 11.4482C10.2192 11.3683 10.2652 11.2936 10.329 11.23C10.5639 10.9948 10.9407 10.9891 11.1758 11.2247L11.1863 11.2352C11.4215 11.4701 11.4215 11.8523 11.1863 12.0875C11.0675 12.207 10.9098 12.2671 10.7524 12.2671L10.7524 12.2671Z" fill="#2B901A"/>
<path d="M3.97711 19.0474C3.82275 19.0474 3.6689 18.9883 3.55105 18.871C3.31567 18.6361 3.31567 18.2544 3.55105 18.0185L3.57365 17.9959C3.80903 17.761 4.19023 17.761 4.42595 17.9959C4.66133 18.2311 4.66133 18.6131 4.42595 18.8482L4.40335 18.871C4.28532 18.9882 4.1313 19.0474 3.97712 19.0474L3.97711 19.0474ZM7.3635 15.6612C7.20915 15.6612 7.05513 15.6021 6.93744 15.4846C6.70206 15.2497 6.70206 14.8675 6.93744 14.6323L6.95971 14.6095C7.19492 14.3743 7.57647 14.3743 7.81201 14.6095C8.04722 14.8447 8.04722 15.2267 7.81201 15.4618L7.78974 15.4846C7.67189 15.6023 7.5177 15.6612 7.36352 15.6612H7.3635Z" fill="#2B901A"/>
<path d="M0.602594 22.4218C0.44824 22.4218 0.294225 22.3632 0.176535 22.2457C-0.0588449 22.0108 -0.0588449 21.6291 0.176535 21.3934C0.411413 21.1585 0.79882 21.1527 1.03402 21.388C1.26923 21.6234 1.27442 21.9997 1.03938 22.235L1.02883 22.2455C0.910806 22.3632 0.756619 22.4218 0.602604 22.4218H0.602594Z" fill="#2B901A"/>
</svg>
