<svg width="45" height="30" viewBox="0 0 45 30" fill="none" xmlns="http://www.w3.org/2000/svg">
<path d="M38.5943 0.81737L38.5943 5.66781L38.024 5.66781C36.2875 5.66781 34.7951 6.73204 34.1519 8.24309L9.34911 8.24273C5.9794 8.24273 3.2202 10.7993 2.81506 14.08L0.811331 14.08C0.362818 14.08 -6.70631e-07 14.4458 -6.50969e-07 14.8956C-6.31275e-07 15.3462 0.362818 15.7113 0.811331 15.7113L2.81544 15.7113C3.22019 18.9923 5.97912 21.5486 9.34948 21.5486L34.1504 21.5486C34.7933 23.0615 36.2857 24.1239 38.024 24.1239L38.5943 24.1239L38.5943 28.9724C38.5943 29.4233 38.9571 29.7881 39.4056 29.7881C39.8541 29.7881 40.217 29.4241 40.217 28.9724L40.217 24.1239L44.1887 24.1238C44.6372 24.1238 45 23.7598 45 23.3082C45 22.8576 44.6379 22.4925 44.1887 22.4925L40.217 22.4925L40.217 18.2859L40.217 11.5038L40.2166 7.29936L44.1883 7.29936C44.6368 7.29936 44.9996 6.93423 44.9996 6.48332C44.9996 6.03241 44.6375 5.66802 44.1883 5.66802L40.2166 5.66802L40.2166 0.815418C40.2166 0.364872 39.8538 0.000112699 39.4053 0.000112718C38.9567 0.000478949 38.5943 0.366457 38.5943 0.81737ZM33.8131 19.9183L9.34914 19.9183C6.59647 19.9183 4.35685 17.6678 4.35536 14.8993L4.35572 14.896L4.35536 14.8927C4.35681 12.1245 6.59647 9.87367 9.34914 9.87367L33.8121 9.87367L33.8121 14.0807L17.8887 14.0803C17.4405 14.0803 17.0774 14.4454 17.0774 14.896C17.0774 15.3465 17.4402 15.7117 17.8887 15.7117L33.8131 15.7117L33.8131 19.9183ZM38.5944 18.2873L38.5944 22.4939L38.0241 22.4939C36.5969 22.4939 35.4355 21.3266 35.4355 19.8915L35.4355 9.90326C35.4355 8.46654 36.5969 7.29936 38.0241 7.29936L38.5944 7.29936L38.5944 18.2873Z" fill="#2B901A"/>
</svg>
