<svg width="13" height="13" viewBox="0 0 13 13" fill="none" xmlns="http://www.w3.org/2000/svg">
<path d="M6.43412 12.8691C9.97773 12.8691 12.8691 9.97773 12.8691 6.43412C12.8691 2.8905 9.97797 -0.000671387 6.43435 -0.000671387C2.89074 -0.000671387 -0.000432014 2.8905 -0.000432014 6.43412C-0.000525475 9.97773 2.89074 12.8691 6.43435 12.8691H6.43412ZM6.43412 0.933427C9.47351 0.933427 11.9348 3.4095 11.9348 6.43412C11.9348 9.47351 9.45873 11.9348 6.43412 11.9348C3.39473 11.9348 0.933427 9.45873 0.933427 6.43412C0.933427 3.39472 3.39473 0.933427 6.43412 0.933427Z" fill="#2B911A"/>
<path d="M6.4346 10.3335C8.58453 10.3335 10.334 8.58392 10.334 6.43412C10.334 4.28431 8.58441 2.53474 6.4346 2.53474C4.2848 2.53474 2.53522 4.28431 2.53522 6.43412C2.53522 8.58392 4.28489 10.3335 6.4346 10.3335ZM6.4346 3.45382C8.08038 3.45382 9.4149 4.78825 9.4149 6.43412C9.4149 8.07999 8.08047 9.41441 6.4346 9.41441C4.78873 9.41441 3.45431 8.07999 3.45431 6.43412C3.45431 4.78825 4.78873 3.45382 6.4346 3.45382Z" fill="#2B911A"/>
</svg>
