<svg width="664" height="48" viewBox="0 0 664 48" fill="none" xmlns="http://www.w3.org/2000/svg">
<path d="M18.62 31.2C17.3533 31.2 16.2667 31.0133 15.36 30.64C14.4533 30.2667 13.7667 29.78 13.3 29.18C12.8467 28.5667 12.6067 27.9 12.58 27.18C12.58 27.0733 12.62 26.98 12.7 26.9C12.7933 26.8067 12.9 26.76 13.02 26.76H15.54C15.7 26.76 15.8267 26.7933 15.92 26.86C16.0267 26.9133 16.1333 27 16.24 27.12C16.4133 27.4667 16.6933 27.7533 17.08 27.98C17.4667 28.2067 17.98 28.32 18.62 28.32C19.38 28.32 19.96 28.2 20.36 27.96C20.76 27.72 20.96 27.3933 20.96 26.98C20.96 26.6867 20.8533 26.4467 20.64 26.26C20.44 26.0733 20.12 25.9067 19.68 25.76C19.24 25.6133 18.5867 25.4467 17.72 25.26C16.12 24.9267 14.92 24.44 14.12 23.8C13.3333 23.1467 12.94 22.22 12.94 21.02C12.94 20.2067 13.1667 19.48 13.62 18.84C14.0733 18.2 14.72 17.7 15.56 17.34C16.4 16.98 17.38 16.8 18.5 16.8C19.66 16.8 20.6667 17 21.52 17.4C22.3733 17.8 23.02 18.3067 23.46 18.92C23.9133 19.52 24.1533 20.1133 24.18 20.7C24.18 20.82 24.14 20.92 24.06 21C23.98 21.08 23.88 21.12 23.76 21.12H21.12C20.96 21.12 20.8267 21.0933 20.72 21.04C20.6267 20.9867 20.54 20.9 20.46 20.78C20.38 20.4733 20.16 20.2133 19.8 20C19.4533 19.7867 19.02 19.68 18.5 19.68C17.9 19.68 17.44 19.7867 17.12 20C16.8 20.2133 16.64 20.5267 16.64 20.94C16.64 21.22 16.7267 21.4533 16.9 21.64C17.0867 21.8267 17.38 22 17.78 22.16C18.1933 22.3067 18.78 22.46 19.54 22.62C20.78 22.8467 21.7667 23.1333 22.5 23.48C23.2467 23.8133 23.7933 24.2533 24.14 24.8C24.4867 25.3333 24.66 26.0067 24.66 26.82C24.66 27.7133 24.4 28.4933 23.88 29.16C23.3733 29.8133 22.66 30.32 21.74 30.68C20.8333 31.0267 19.7933 31.2 18.62 31.2ZM27.1617 31C27.0151 31 26.8951 30.9533 26.8017 30.86C26.7084 30.7667 26.6617 30.6467 26.6617 30.5V17.5C26.6617 17.3533 26.7084 17.2333 26.8017 17.14C26.9084 17.0467 27.0284 17 27.1617 17H29.7417C29.8884 17 30.0084 17.0467 30.1017 17.14C30.2084 17.2333 30.2617 17.3533 30.2617 17.5V22.32H35.1817V17.5C35.1817 17.3533 35.2284 17.2333 35.3217 17.14C35.4151 17.0467 35.5351 17 35.6817 17H38.2617C38.4084 17 38.5284 17.0467 38.6217 17.14C38.7151 17.2333 38.7617 17.3533 38.7617 17.5V30.5C38.7617 30.6467 38.7151 30.7667 38.6217 30.86C38.5284 30.9533 38.4084 31 38.2617 31H35.6817C35.5351 31 35.4151 30.9533 35.3217 30.86C35.2284 30.7667 35.1817 30.6467 35.1817 30.5V25.52H30.2617V30.5C30.2617 30.6467 30.2084 30.7667 30.1017 30.86C30.0084 30.9533 29.8884 31 29.7417 31H27.1617ZM47.2841 31.2C45.4041 31.2 43.9241 30.74 42.8441 29.82C41.7641 28.9 41.1907 27.5467 41.1241 25.76C41.1107 25.3733 41.1041 24.8 41.1041 24.04C41.1041 23.2667 41.1107 22.6867 41.1241 22.3C41.1907 20.54 41.7707 19.1867 42.8641 18.24C43.9707 17.28 45.4441 16.8 47.2841 16.8C49.1241 16.8 50.5974 17.28 51.7041 18.24C52.8107 19.1867 53.3907 20.54 53.4441 22.3C53.4707 23.0733 53.4841 23.6533 53.4841 24.04C53.4841 24.4133 53.4707 24.9867 53.4441 25.76C53.3774 27.5467 52.8041 28.9 51.7241 29.82C50.6441 30.74 49.1641 31.2 47.2841 31.2ZM47.2841 28.32C48.0174 28.32 48.5974 28.1 49.0241 27.66C49.4641 27.22 49.6974 26.5467 49.7241 25.64C49.7507 24.8667 49.7641 24.32 49.7641 24C49.7641 23.6533 49.7507 23.1067 49.7241 22.36C49.6974 21.4533 49.4641 20.78 49.0241 20.34C48.5841 19.9 48.0041 19.68 47.2841 19.68C46.5641 19.68 45.9841 19.9 45.5441 20.34C45.1174 20.78 44.8841 21.4533 44.8441 22.36C44.8307 22.7333 44.8241 23.28 44.8241 24C44.8241 24.7067 44.8307 25.2533 44.8441 25.64C44.8841 26.5467 45.1174 27.22 45.5441 27.66C45.9707 28.1 46.5507 28.32 47.2841 28.32ZM56.3023 31C56.169 31 56.049 30.9533 55.9423 30.86C55.849 30.7533 55.8023 30.6333 55.8023 30.5V17.5C55.8023 17.3533 55.849 17.2333 55.9423 17.14C56.049 17.0467 56.169 17 56.3023 17H61.9023C63.609 17 64.949 17.3933 65.9223 18.18C66.909 18.9667 67.4023 20.1133 67.4023 21.62C67.4023 23.1133 66.9157 24.24 65.9423 25C64.969 25.7467 63.6223 26.12 61.9023 26.12H59.5223V30.5C59.5223 30.6467 59.469 30.7667 59.3623 30.86C59.269 30.9533 59.149 31 59.0023 31H56.3023ZM61.8023 23.36C62.389 23.36 62.849 23.2133 63.1823 22.92C63.5157 22.6133 63.6823 22.1667 63.6823 21.58C63.6823 21.0333 63.5223 20.6 63.2023 20.28C62.8957 19.9467 62.429 19.78 61.8023 19.78H59.4623V23.36H61.8023Z" fill="white"/>
<path d="M133.9 31C133.767 31 133.647 30.9533 133.54 30.86C133.447 30.7533 133.4 30.6333 133.4 30.5V17.5C133.4 17.3533 133.447 17.2333 133.54 17.14C133.647 17.0467 133.767 17 133.9 17H136.02C136.353 17 136.58 17.1267 136.7 17.38L141.58 25.06V17.5C141.58 17.3533 141.627 17.2333 141.72 17.14C141.827 17.0467 141.947 17 142.08 17H144.48C144.627 17 144.747 17.0467 144.84 17.14C144.933 17.2333 144.98 17.3533 144.98 17.5V30.48C144.98 30.6267 144.933 30.7533 144.84 30.86C144.747 30.9533 144.627 31 144.48 31H142.34C142.047 31 141.827 30.8733 141.68 30.62L136.8 23.22V30.5C136.8 30.6333 136.753 30.7533 136.66 30.86C136.567 30.9533 136.447 31 136.3 31H133.9ZM148.275 31C148.142 31 148.022 30.9533 147.915 30.86C147.822 30.7533 147.775 30.6333 147.775 30.5V17.5C147.775 17.3533 147.822 17.2333 147.915 17.14C148.022 17.0467 148.142 17 148.275 17H157.475C157.622 17 157.742 17.0467 157.835 17.14C157.928 17.2333 157.975 17.3533 157.975 17.5V19.52C157.975 19.6533 157.928 19.7733 157.835 19.88C157.742 19.9733 157.622 20.02 157.475 20.02H151.295V22.96H157.075C157.222 22.96 157.342 23.0133 157.435 23.12C157.528 23.2133 157.575 23.3333 157.575 23.48V25.48C157.575 25.6133 157.528 25.7333 157.435 25.84C157.342 25.9333 157.222 25.98 157.075 25.98H151.295V30.5C151.295 30.6467 151.248 30.7667 151.155 30.86C151.062 30.9533 150.942 31 150.795 31H148.275ZM163.718 31C163.585 31 163.465 30.9533 163.358 30.86C163.265 30.7533 163.218 30.6333 163.218 30.5V20.14H159.658C159.525 20.14 159.405 20.0933 159.298 20C159.205 19.8933 159.158 19.7733 159.158 19.64V17.5C159.158 17.3533 159.205 17.2333 159.298 17.14C159.405 17.0467 159.525 17 159.658 17H170.418C170.565 17 170.685 17.0467 170.778 17.14C170.872 17.2333 170.918 17.3533 170.918 17.5V19.64C170.918 19.7867 170.872 19.9067 170.778 20C170.685 20.0933 170.565 20.14 170.418 20.14H166.858V30.5C166.858 30.6333 166.812 30.7533 166.718 30.86C166.625 30.9533 166.505 31 166.358 31H163.718ZM175.194 31.2C174.114 31.2 173.208 31.0467 172.474 30.74C171.754 30.4333 171.221 30.0667 170.874 29.64C170.528 29.2133 170.354 28.8333 170.354 28.5C170.354 28.3667 170.401 28.26 170.494 28.18C170.601 28.0867 170.714 28.04 170.834 28.04H173.114C173.194 28.04 173.268 28.0733 173.334 28.14C173.494 28.2467 173.614 28.3333 173.694 28.4C173.988 28.6133 174.241 28.7733 174.454 28.88C174.681 28.9733 174.954 29.02 175.274 29.02C175.661 29.02 175.974 28.9467 176.214 28.8C176.468 28.64 176.594 28.42 176.594 28.14C176.594 27.9133 176.528 27.7333 176.394 27.6C176.274 27.4667 176.034 27.34 175.674 27.22C175.314 27.0867 174.768 26.9467 174.034 26.8C172.928 26.5733 172.074 26.2067 171.474 25.7C170.888 25.18 170.594 24.4867 170.594 23.62C170.594 23.0733 170.768 22.5533 171.114 22.06C171.461 21.5667 171.974 21.1667 172.654 20.86C173.348 20.5533 174.168 20.4 175.114 20.4C176.061 20.4 176.888 20.5467 177.594 20.84C178.301 21.1333 178.834 21.4933 179.194 21.92C179.568 22.3333 179.754 22.7133 179.754 23.06C179.754 23.18 179.708 23.2867 179.614 23.38C179.534 23.4733 179.434 23.52 179.314 23.52H177.234C177.128 23.52 177.028 23.4867 176.934 23.42C176.761 23.3267 176.608 23.2267 176.474 23.12C176.248 22.9467 176.034 22.8133 175.834 22.72C175.634 22.6267 175.388 22.58 175.094 22.58C174.748 22.58 174.468 22.66 174.254 22.82C174.054 22.98 173.954 23.1867 173.954 23.44C173.954 23.64 174.008 23.8067 174.114 23.94C174.234 24.0733 174.474 24.2067 174.834 24.34C175.208 24.46 175.754 24.5867 176.474 24.72C177.768 24.9467 178.708 25.3467 179.294 25.92C179.894 26.4933 180.194 27.1667 180.194 27.94C180.194 28.9267 179.754 29.72 178.874 30.32C177.994 30.9067 176.768 31.2 175.194 31.2Z" fill="white"/>
<path d="M246.9 31C246.767 31 246.647 30.9533 246.54 30.86C246.447 30.7533 246.4 30.6333 246.4 30.5V17.5C246.4 17.3533 246.447 17.2333 246.54 17.14C246.647 17.0467 246.767 17 246.9 17H252.1C254.06 17 255.58 17.4667 256.66 18.4C257.74 19.3333 258.307 20.6867 258.36 22.46C258.373 22.8467 258.38 23.36 258.38 24C258.38 24.64 258.373 25.1467 258.36 25.52C258.293 27.3733 257.74 28.7533 256.7 29.66C255.673 30.5533 254.173 31 252.2 31H246.9ZM252.1 28.12C252.98 28.12 253.627 27.9133 254.04 27.5C254.453 27.0733 254.673 26.4 254.7 25.48C254.727 25.0933 254.74 24.5933 254.74 23.98C254.74 23.3667 254.727 22.8733 254.7 22.5C254.673 21.6067 254.433 20.9467 253.98 20.52C253.54 20.0933 252.88 19.88 252 19.88H250V28.12H252.1ZM260.976 19.1C260.83 19.1 260.71 19.0533 260.616 18.96C260.523 18.8667 260.476 18.7467 260.476 18.6V16.8C260.476 16.6533 260.523 16.5333 260.616 16.44C260.71 16.3467 260.83 16.3 260.976 16.3H263.376C263.523 16.3 263.643 16.3467 263.736 16.44C263.83 16.5333 263.876 16.6533 263.876 16.8V18.6C263.876 18.7467 263.83 18.8667 263.736 18.96C263.643 19.0533 263.523 19.1 263.376 19.1H260.976ZM260.996 31C260.85 31 260.73 30.9533 260.636 30.86C260.543 30.7667 260.496 30.6467 260.496 30.5V21.1C260.496 20.9533 260.543 20.8333 260.636 20.74C260.73 20.6467 260.85 20.6 260.996 20.6H263.356C263.503 20.6 263.623 20.6467 263.716 20.74C263.81 20.8333 263.856 20.9533 263.856 21.1V30.5C263.856 30.6333 263.81 30.7533 263.716 30.86C263.623 30.9533 263.503 31 263.356 31H260.996ZM271.319 35.4C270.052 35.4 269.026 35.1933 268.239 34.78C267.452 34.3667 266.886 33.8933 266.539 33.36C266.206 32.8267 266.039 32.38 266.039 32.02C266.039 31.9 266.092 31.7933 266.199 31.7C266.306 31.6067 266.426 31.56 266.559 31.56H269.099C269.232 31.56 269.332 31.5867 269.399 31.64C269.479 31.7067 269.552 31.8133 269.619 31.96C269.752 32.2667 269.932 32.5067 270.159 32.68C270.386 32.8667 270.739 32.96 271.219 32.96C271.832 32.96 272.286 32.8067 272.579 32.5C272.872 32.2067 273.019 31.7067 273.019 31V29.66C272.339 30.4067 271.366 30.78 270.099 30.78C268.752 30.78 267.719 30.3867 266.999 29.6C266.292 28.8 265.906 27.6467 265.839 26.14L265.819 25.6C265.819 23.9867 266.179 22.72 266.899 21.8C267.619 20.8667 268.686 20.4 270.099 20.4C270.779 20.4 271.379 20.5333 271.899 20.8C272.419 21.0533 272.859 21.4 273.219 21.84V21.1C273.219 20.9533 273.266 20.8333 273.359 20.74C273.466 20.6467 273.586 20.6 273.719 20.6H276.019C276.166 20.6 276.286 20.6533 276.379 20.76C276.486 20.8533 276.539 20.9667 276.539 21.1V30.72C276.539 32.24 276.086 33.4 275.179 34.2C274.272 35 272.986 35.4 271.319 35.4ZM271.179 28.18C271.779 28.18 272.226 28 272.519 27.64C272.812 27.2667 272.979 26.8 273.019 26.24C273.032 26.1467 273.039 25.94 273.039 25.62C273.039 25.3133 273.032 25.1133 273.019 25.02C272.992 24.46 272.826 24 272.519 23.64C272.226 23.2667 271.779 23.08 271.179 23.08C270.552 23.08 270.099 23.2667 269.819 23.64C269.539 24.0133 269.386 24.5267 269.359 25.18L269.339 25.62C269.339 26.4067 269.472 27.0333 269.739 27.5C270.006 27.9533 270.486 28.18 271.179 28.18ZM279.375 19.1C279.228 19.1 279.108 19.0533 279.015 18.96C278.922 18.8667 278.875 18.7467 278.875 18.6V16.8C278.875 16.6533 278.922 16.5333 279.015 16.44C279.108 16.3467 279.228 16.3 279.375 16.3H281.775C281.922 16.3 282.042 16.3467 282.135 16.44C282.228 16.5333 282.275 16.6533 282.275 16.8V18.6C282.275 18.7467 282.228 18.8667 282.135 18.96C282.042 19.0533 281.922 19.1 281.775 19.1H279.375ZM279.395 31C279.248 31 279.128 30.9533 279.035 30.86C278.942 30.7667 278.895 30.6467 278.895 30.5V21.1C278.895 20.9533 278.942 20.8333 279.035 20.74C279.128 20.6467 279.248 20.6 279.395 20.6H281.755C281.902 20.6 282.022 20.6467 282.115 20.74C282.208 20.8333 282.255 20.9533 282.255 21.1V30.5C282.255 30.6333 282.208 30.7533 282.115 30.86C282.022 30.9533 281.902 31 281.755 31H279.395ZM289.938 31C287.178 31 285.798 29.6867 285.798 27.06V23.22H284.238C284.091 23.22 283.964 23.1733 283.858 23.08C283.764 22.9867 283.718 22.8667 283.718 22.72V21.1C283.718 20.9533 283.764 20.8333 283.858 20.74C283.964 20.6467 284.091 20.6 284.238 20.6H285.798V17.3C285.798 17.1533 285.844 17.0333 285.938 16.94C286.044 16.8467 286.164 16.8 286.298 16.8H288.618C288.764 16.8 288.884 16.8467 288.978 16.94C289.071 17.0333 289.118 17.1533 289.118 17.3V20.6H291.618C291.764 20.6 291.884 20.6467 291.978 20.74C292.084 20.8333 292.138 20.9533 292.138 21.1V22.72C292.138 22.8667 292.084 22.9867 291.978 23.08C291.884 23.1733 291.764 23.22 291.618 23.22H289.118V26.78C289.118 27.7667 289.498 28.26 290.258 28.26H291.798C291.944 28.26 292.064 28.3067 292.158 28.4C292.251 28.4933 292.298 28.6133 292.298 28.76V30.5C292.298 30.6333 292.251 30.7533 292.158 30.86C292.064 30.9533 291.944 31 291.798 31H289.938ZM297.073 31.2C296.367 31.2 295.72 31.0667 295.133 30.8C294.56 30.52 294.107 30.1467 293.773 29.68C293.453 29.2 293.293 28.6733 293.293 28.1C293.293 27.18 293.667 26.44 294.413 25.88C295.173 25.32 296.213 24.9333 297.533 24.72L300.033 24.34V24.06C300.033 23.5533 299.927 23.18 299.713 22.94C299.5 22.7 299.14 22.58 298.633 22.58C298.327 22.58 298.073 22.6333 297.873 22.74C297.673 22.8467 297.467 22.9933 297.253 23.18C297.067 23.34 296.927 23.4467 296.833 23.5C296.793 23.6067 296.72 23.66 296.613 23.66H294.433C294.3 23.66 294.187 23.62 294.093 23.54C294.013 23.4467 293.98 23.34 293.993 23.22C294.007 22.86 294.18 22.46 294.513 22.02C294.86 21.58 295.38 21.2 296.073 20.88C296.78 20.56 297.647 20.4 298.673 20.4C300.313 20.4 301.527 20.7667 302.313 21.5C303.1 22.22 303.493 23.1933 303.493 24.42V30.5C303.493 30.6333 303.447 30.7533 303.353 30.86C303.26 30.9533 303.14 31 302.993 31H300.673C300.54 31 300.42 30.9533 300.313 30.86C300.22 30.7533 300.173 30.6333 300.173 30.5V29.8C299.88 30.2133 299.467 30.5533 298.933 30.82C298.413 31.0733 297.793 31.2 297.073 31.2ZM298.013 28.92C298.627 28.92 299.12 28.72 299.493 28.32C299.88 27.92 300.073 27.3333 300.073 26.56V26.28L298.373 26.58C297.173 26.7933 296.573 27.2133 296.573 27.84C296.573 28.1733 296.713 28.44 296.993 28.64C297.273 28.8267 297.613 28.92 298.013 28.92ZM306.25 31C306.117 31 305.997 30.9533 305.89 30.86C305.797 30.7533 305.75 30.6333 305.75 30.5V17.3C305.75 17.1533 305.797 17.0333 305.89 16.94C305.997 16.8467 306.117 16.8 306.25 16.8H308.61C308.757 16.8 308.877 16.8467 308.97 16.94C309.064 17.0333 309.11 17.1533 309.11 17.3V30.5C309.11 30.6467 309.064 30.7667 308.97 30.86C308.877 30.9533 308.757 31 308.61 31H306.25ZM319.062 31C318.929 31 318.809 30.9533 318.702 30.86C318.609 30.7533 318.562 30.6333 318.562 30.5V20.14H315.002C314.869 20.14 314.749 20.0933 314.642 20C314.549 19.8933 314.502 19.7733 314.502 19.64V17.5C314.502 17.3533 314.549 17.2333 314.642 17.14C314.749 17.0467 314.869 17 315.002 17H325.762C325.909 17 326.029 17.0467 326.122 17.14C326.215 17.2333 326.262 17.3533 326.262 17.5V19.64C326.262 19.7867 326.215 19.9067 326.122 20C326.029 20.0933 325.909 20.14 325.762 20.14H322.202V30.5C322.202 30.6333 322.155 30.7533 322.062 30.86C321.969 30.9533 321.849 31 321.702 31H319.062ZM328.047 31C327.914 31 327.794 30.9533 327.687 30.86C327.594 30.7533 327.547 30.6333 327.547 30.5V17.3C327.547 17.1533 327.594 17.0333 327.687 16.94C327.794 16.8467 327.914 16.8 328.047 16.8H330.607C330.754 16.8 330.874 16.8467 330.967 16.94C331.061 17.0333 331.107 17.1533 331.107 17.3V21.76C331.907 20.8533 332.961 20.4 334.267 20.4C335.041 20.4 335.727 20.5733 336.327 20.92C336.941 21.2667 337.421 21.78 337.767 22.46C338.114 23.14 338.287 23.96 338.287 24.92V30.5C338.287 30.6333 338.241 30.7533 338.147 30.86C338.054 30.9533 337.934 31 337.787 31H335.207C335.074 31 334.954 30.9533 334.847 30.86C334.754 30.7533 334.707 30.6333 334.707 30.5V25.04C334.707 24.4133 334.554 23.9333 334.247 23.6C333.954 23.2533 333.521 23.08 332.947 23.08C332.374 23.08 331.921 23.2533 331.587 23.6C331.267 23.9333 331.107 24.4133 331.107 25.04V30.5C331.107 30.6467 331.061 30.7667 330.967 30.86C330.874 30.9533 330.754 31 330.607 31H328.047ZM345.355 31.2C343.755 31.2 342.495 30.7667 341.575 29.9C340.655 29.0333 340.175 27.7733 340.135 26.12V25.42C340.188 23.8467 340.675 22.62 341.595 21.74C342.528 20.8467 343.775 20.4 345.335 20.4C346.468 20.4 347.422 20.6333 348.195 21.1C348.982 21.5533 349.568 22.18 349.955 22.98C350.355 23.78 350.555 24.7 350.555 25.74V26.22C350.555 26.3533 350.508 26.4733 350.415 26.58C350.322 26.6733 350.202 26.72 350.055 26.72H343.655V26.86C343.682 27.4867 343.835 27.9933 344.115 28.38C344.395 28.7667 344.802 28.96 345.335 28.96C345.668 28.96 345.942 28.8933 346.155 28.76C346.368 28.6133 346.562 28.44 346.735 28.24C346.855 28.0933 346.948 28.0067 347.015 27.98C347.095 27.94 347.215 27.92 347.375 27.92H349.855C349.975 27.92 350.075 27.96 350.155 28.04C350.248 28.1067 350.295 28.2 350.295 28.32C350.295 28.6667 350.095 29.0667 349.695 29.52C349.308 29.9733 348.742 30.3667 347.995 30.7C347.248 31.0333 346.368 31.2 345.355 31.2ZM347.035 24.74V24.7C347.035 24.0467 346.882 23.5333 346.575 23.16C346.282 22.7733 345.868 22.58 345.335 22.58C344.815 22.58 344.402 22.7733 344.095 23.16C343.802 23.5333 343.655 24.0467 343.655 24.7V24.74H347.035ZM355.55 31.2C354.843 31.2 354.197 31.0667 353.61 30.8C353.037 30.52 352.583 30.1467 352.25 29.68C351.93 29.2 351.77 28.6733 351.77 28.1C351.77 27.18 352.143 26.44 352.89 25.88C353.65 25.32 354.69 24.9333 356.01 24.72L358.51 24.34V24.06C358.51 23.5533 358.403 23.18 358.19 22.94C357.977 22.7 357.617 22.58 357.11 22.58C356.803 22.58 356.55 22.6333 356.35 22.74C356.15 22.8467 355.943 22.9933 355.73 23.18C355.543 23.34 355.403 23.4467 355.31 23.5C355.27 23.6067 355.197 23.66 355.09 23.66H352.91C352.777 23.66 352.663 23.62 352.57 23.54C352.49 23.4467 352.457 23.34 352.47 23.22C352.483 22.86 352.657 22.46 352.99 22.02C353.337 21.58 353.857 21.2 354.55 20.88C355.257 20.56 356.123 20.4 357.15 20.4C358.79 20.4 360.003 20.7667 360.79 21.5C361.577 22.22 361.97 23.1933 361.97 24.42V30.5C361.97 30.6333 361.923 30.7533 361.83 30.86C361.737 30.9533 361.617 31 361.47 31H359.15C359.017 31 358.897 30.9533 358.79 30.86C358.697 30.7533 358.65 30.6333 358.65 30.5V29.8C358.357 30.2133 357.943 30.5533 357.41 30.82C356.89 31.0733 356.27 31.2 355.55 31.2ZM356.49 28.92C357.103 28.92 357.597 28.72 357.97 28.32C358.357 27.92 358.55 27.3333 358.55 26.56V26.28L356.85 26.58C355.65 26.7933 355.05 27.2133 355.05 27.84C355.05 28.1733 355.19 28.44 355.47 28.64C355.75 28.8267 356.09 28.92 356.49 28.92ZM369.469 31C366.709 31 365.329 29.6867 365.329 27.06V23.22H363.769C363.622 23.22 363.495 23.1733 363.389 23.08C363.295 22.9867 363.249 22.8667 363.249 22.72V21.1C363.249 20.9533 363.295 20.8333 363.389 20.74C363.495 20.6467 363.622 20.6 363.769 20.6H365.329V17.3C365.329 17.1533 365.375 17.0333 365.469 16.94C365.575 16.8467 365.695 16.8 365.829 16.8H368.149C368.295 16.8 368.415 16.8467 368.509 16.94C368.602 17.0333 368.649 17.1533 368.649 17.3V20.6H371.149C371.295 20.6 371.415 20.6467 371.509 20.74C371.615 20.8333 371.669 20.9533 371.669 21.1V22.72C371.669 22.8667 371.615 22.9867 371.509 23.08C371.415 23.1733 371.295 23.22 371.149 23.22H368.649V26.78C368.649 27.7667 369.029 28.26 369.789 28.26H371.329C371.475 28.26 371.595 28.3067 371.689 28.4C371.782 28.4933 371.829 28.6133 371.829 28.76V30.5C371.829 30.6333 371.782 30.7533 371.689 30.86C371.595 30.9533 371.475 31 371.329 31H369.469ZM378.285 31.2C376.685 31.2 375.425 30.7667 374.505 29.9C373.585 29.0333 373.105 27.7733 373.065 26.12V25.42C373.118 23.8467 373.605 22.62 374.525 21.74C375.458 20.8467 376.705 20.4 378.265 20.4C379.398 20.4 380.351 20.6333 381.125 21.1C381.911 21.5533 382.498 22.18 382.885 22.98C383.285 23.78 383.485 24.7 383.485 25.74V26.22C383.485 26.3533 383.438 26.4733 383.345 26.58C383.251 26.6733 383.131 26.72 382.985 26.72H376.585V26.86C376.611 27.4867 376.765 27.9933 377.045 28.38C377.325 28.7667 377.731 28.96 378.265 28.96C378.598 28.96 378.871 28.8933 379.085 28.76C379.298 28.6133 379.491 28.44 379.665 28.24C379.785 28.0933 379.878 28.0067 379.945 27.98C380.025 27.94 380.145 27.92 380.305 27.92H382.785C382.905 27.92 383.005 27.96 383.085 28.04C383.178 28.1067 383.225 28.2 383.225 28.32C383.225 28.6667 383.025 29.0667 382.625 29.52C382.238 29.9733 381.671 30.3667 380.925 30.7C380.178 31.0333 379.298 31.2 378.285 31.2ZM379.965 24.74V24.7C379.965 24.0467 379.811 23.5333 379.505 23.16C379.211 22.7733 378.798 22.58 378.265 22.58C377.745 22.58 377.331 22.7733 377.025 23.16C376.731 23.5333 376.585 24.0467 376.585 24.7V24.74H379.965ZM385.86 31C385.713 31 385.593 30.9533 385.5 30.86C385.406 30.7667 385.36 30.6467 385.36 30.5V21.1C385.36 20.9533 385.406 20.8333 385.5 20.74C385.593 20.6467 385.713 20.6 385.86 20.6H388.16C388.306 20.6 388.426 20.6533 388.52 20.76C388.626 20.8533 388.68 20.9667 388.68 21.1V21.9C389.413 21.0333 390.4 20.6 391.64 20.6H392.52C392.666 20.6 392.786 20.6467 392.88 20.74C392.973 20.8333 393.02 20.9533 393.02 21.1V23.16C393.02 23.2933 392.973 23.4133 392.88 23.52C392.786 23.6133 392.666 23.66 392.52 23.66H390.58C390.033 23.66 389.606 23.8133 389.3 24.12C389.006 24.4133 388.86 24.8333 388.86 25.38V30.5C388.86 30.6467 388.806 30.7667 388.7 30.86C388.606 30.9533 388.486 31 388.34 31H385.86Z" fill="white"/>
<path d="M459.9 31C459.767 31 459.647 30.9533 459.54 30.86C459.447 30.7533 459.4 30.6333 459.4 30.5V17.5C459.4 17.3533 459.447 17.2333 459.54 17.14C459.647 17.0467 459.767 17 459.9 17H462.02C462.353 17 462.58 17.1267 462.7 17.38L467.58 25.06V17.5C467.58 17.3533 467.627 17.2333 467.72 17.14C467.827 17.0467 467.947 17 468.08 17H470.48C470.627 17 470.747 17.0467 470.84 17.14C470.933 17.2333 470.98 17.3533 470.98 17.5V30.48C470.98 30.6267 470.933 30.7533 470.84 30.86C470.747 30.9533 470.627 31 470.48 31H468.34C468.047 31 467.827 30.8733 467.68 30.62L462.8 23.22V30.5C462.8 30.6333 462.753 30.7533 462.66 30.86C462.567 30.9533 462.447 31 462.3 31H459.9ZM478.355 31.2C476.755 31.2 475.495 30.7667 474.575 29.9C473.655 29.0333 473.175 27.7733 473.135 26.12V25.42C473.188 23.8467 473.675 22.62 474.595 21.74C475.528 20.8467 476.775 20.4 478.335 20.4C479.468 20.4 480.422 20.6333 481.195 21.1C481.982 21.5533 482.568 22.18 482.955 22.98C483.355 23.78 483.555 24.7 483.555 25.74V26.22C483.555 26.3533 483.508 26.4733 483.415 26.58C483.322 26.6733 483.202 26.72 483.055 26.72H476.655V26.86C476.682 27.4867 476.835 27.9933 477.115 28.38C477.395 28.7667 477.802 28.96 478.335 28.96C478.668 28.96 478.942 28.8933 479.155 28.76C479.368 28.6133 479.562 28.44 479.735 28.24C479.855 28.0933 479.948 28.0067 480.015 27.98C480.095 27.94 480.215 27.92 480.375 27.92H482.855C482.975 27.92 483.075 27.96 483.155 28.04C483.248 28.1067 483.295 28.2 483.295 28.32C483.295 28.6667 483.095 29.0667 482.695 29.52C482.308 29.9733 481.742 30.3667 480.995 30.7C480.248 31.0333 479.368 31.2 478.355 31.2ZM480.035 24.74V24.7C480.035 24.0467 479.882 23.5333 479.575 23.16C479.282 22.7733 478.868 22.58 478.335 22.58C477.815 22.58 477.402 22.7733 477.095 23.16C476.802 23.5333 476.655 24.0467 476.655 24.7V24.74H480.035ZM488.018 31C487.831 31 487.684 30.96 487.578 30.88C487.484 30.7867 487.411 30.66 487.358 30.5L484.478 21.24L484.438 21.04C484.438 20.92 484.484 20.82 484.578 20.74C484.671 20.6467 484.778 20.6 484.898 20.6H486.958C487.118 20.6 487.251 20.6467 487.358 20.74C487.464 20.82 487.531 20.9133 487.558 21.02L489.238 26.74L491.038 21.04C491.064 20.9333 491.131 20.8333 491.238 20.74C491.344 20.6467 491.484 20.6 491.658 20.6H492.978C493.151 20.6 493.291 20.6467 493.398 20.74C493.504 20.8333 493.571 20.9333 493.598 21.04L495.398 26.74L497.078 21.02C497.104 20.9133 497.171 20.82 497.278 20.74C497.384 20.6467 497.518 20.6 497.678 20.6H499.738C499.858 20.6 499.964 20.6467 500.058 20.74C500.151 20.82 500.198 20.92 500.198 21.04L500.158 21.24L497.278 30.5C497.224 30.66 497.144 30.7867 497.038 30.88C496.944 30.96 496.804 31 496.618 31H494.818C494.471 31 494.251 30.8333 494.158 30.5L492.318 25.02L490.478 30.5C490.384 30.8333 490.164 31 489.817 31H488.018ZM505.882 31.2C504.802 31.2 503.895 31.0467 503.162 30.74C502.442 30.4333 501.909 30.0667 501.562 29.64C501.215 29.2133 501.042 28.8333 501.042 28.5C501.042 28.3667 501.089 28.26 501.182 28.18C501.289 28.0867 501.402 28.04 501.522 28.04H503.802C503.882 28.04 503.955 28.0733 504.022 28.14C504.182 28.2467 504.302 28.3333 504.382 28.4C504.675 28.6133 504.929 28.7733 505.142 28.88C505.369 28.9733 505.642 29.02 505.962 29.02C506.349 29.02 506.662 28.9467 506.902 28.8C507.155 28.64 507.282 28.42 507.282 28.14C507.282 27.9133 507.215 27.7333 507.082 27.6C506.962 27.4667 506.722 27.34 506.362 27.22C506.002 27.0867 505.455 26.9467 504.722 26.8C503.615 26.5733 502.762 26.2067 502.162 25.7C501.575 25.18 501.282 24.4867 501.282 23.62C501.282 23.0733 501.455 22.5533 501.802 22.06C502.149 21.5667 502.662 21.1667 503.342 20.86C504.035 20.5533 504.855 20.4 505.802 20.4C506.749 20.4 507.575 20.5467 508.282 20.84C508.989 21.1333 509.522 21.4933 509.882 21.92C510.255 22.3333 510.442 22.7133 510.442 23.06C510.442 23.18 510.395 23.2867 510.302 23.38C510.222 23.4733 510.122 23.52 510.002 23.52H507.922C507.815 23.52 507.715 23.4867 507.622 23.42C507.449 23.3267 507.295 23.2267 507.162 23.12C506.935 22.9467 506.722 22.8133 506.522 22.72C506.322 22.6267 506.075 22.58 505.782 22.58C505.435 22.58 505.155 22.66 504.942 22.82C504.742 22.98 504.642 23.1867 504.642 23.44C504.642 23.64 504.695 23.8067 504.802 23.94C504.922 24.0733 505.162 24.2067 505.522 24.34C505.895 24.46 506.442 24.5867 507.162 24.72C508.455 24.9467 509.395 25.3467 509.982 25.92C510.582 26.4933 510.882 27.1667 510.882 27.94C510.882 28.9267 510.442 29.72 509.562 30.32C508.682 30.9067 507.455 31.2 505.882 31.2ZM513.157 31C513.01 31 512.89 30.9533 512.797 30.86C512.703 30.7667 512.657 30.6467 512.657 30.5V21.1C512.657 20.9533 512.703 20.8333 512.797 20.74C512.89 20.6467 513.01 20.6 513.157 20.6H515.457C515.603 20.6 515.723 20.6533 515.817 20.76C515.923 20.8533 515.977 20.9667 515.977 21.1V21.9C516.71 21.0333 517.697 20.6 518.937 20.6H519.817C519.963 20.6 520.083 20.6467 520.177 20.74C520.27 20.8333 520.317 20.9533 520.317 21.1V23.16C520.317 23.2933 520.27 23.4133 520.177 23.52C520.083 23.6133 519.963 23.66 519.817 23.66H517.877C517.33 23.66 516.903 23.8133 516.597 24.12C516.303 24.4133 516.157 24.8333 516.157 25.38V30.5C516.157 30.6467 516.103 30.7667 515.997 30.86C515.903 30.9533 515.783 31 515.637 31H513.157ZM526.561 31.2C524.908 31.2 523.634 30.8067 522.741 30.02C521.848 29.2333 521.361 28.1267 521.281 26.7C521.268 26.5267 521.261 26.2267 521.261 25.8C521.261 25.3733 521.268 25.0733 521.281 24.9C521.361 23.4867 521.861 22.3867 522.781 21.6C523.701 20.8 524.961 20.4 526.561 20.4C528.174 20.4 529.441 20.8 530.361 21.6C531.281 22.3867 531.781 23.4867 531.861 24.9C531.874 25.0733 531.881 25.3733 531.881 25.8C531.881 26.2267 531.874 26.5267 531.861 26.7C531.781 28.1267 531.294 29.2333 530.401 30.02C529.508 30.8067 528.228 31.2 526.561 31.2ZM526.561 28.76C527.148 28.76 527.581 28.5867 527.861 28.24C528.141 27.88 528.301 27.3333 528.341 26.6C528.354 26.4667 528.361 26.2 528.361 25.8C528.361 25.4 528.354 25.1333 528.341 25C528.301 24.28 528.134 23.74 527.841 23.38C527.561 23.02 527.134 22.84 526.561 22.84C525.454 22.84 524.868 23.56 524.801 25L524.781 25.8L524.801 26.6C524.828 27.3333 524.981 27.88 525.261 28.24C525.554 28.5867 525.988 28.76 526.561 28.76ZM538.788 31.2C537.134 31.2 535.861 30.8067 534.968 30.02C534.074 29.2333 533.588 28.1267 533.508 26.7C533.494 26.5267 533.488 26.2267 533.488 25.8C533.488 25.3733 533.494 25.0733 533.508 24.9C533.588 23.4867 534.088 22.3867 535.008 21.6C535.928 20.8 537.188 20.4 538.788 20.4C540.401 20.4 541.668 20.8 542.588 21.6C543.508 22.3867 544.008 23.4867 544.088 24.9C544.101 25.0733 544.108 25.3733 544.108 25.8C544.108 26.2267 544.101 26.5267 544.088 26.7C544.008 28.1267 543.521 29.2333 542.628 30.02C541.734 30.8067 540.454 31.2 538.788 31.2ZM538.788 28.76C539.374 28.76 539.808 28.5867 540.088 28.24C540.368 27.88 540.528 27.3333 540.568 26.6C540.581 26.4667 540.588 26.2 540.588 25.8C540.588 25.4 540.581 25.1333 540.568 25C540.528 24.28 540.361 23.74 540.068 23.38C539.788 23.02 539.361 22.84 538.788 22.84C537.681 22.84 537.094 23.56 537.028 25L537.008 25.8L537.028 26.6C537.054 27.3333 537.208 27.88 537.488 28.24C537.781 28.5867 538.214 28.76 538.788 28.76ZM546.594 31C546.447 31 546.327 30.9533 546.234 30.86C546.141 30.7667 546.094 30.6467 546.094 30.5V21.1C546.094 20.9533 546.141 20.8333 546.234 20.74C546.327 20.6467 546.447 20.6 546.594 20.6H548.774C548.921 20.6 549.041 20.6467 549.134 20.74C549.227 20.8333 549.274 20.9533 549.274 21.1V21.78C549.581 21.38 549.987 21.0533 550.494 20.8C551.014 20.5333 551.594 20.4 552.234 20.4C553.701 20.4 554.714 20.9733 555.274 22.12C555.594 21.6133 556.041 21.2 556.614 20.88C557.187 20.56 557.801 20.4 558.454 20.4C559.547 20.4 560.434 20.7733 561.114 21.52C561.807 22.2533 562.154 23.3533 562.154 24.82V30.5C562.154 30.6333 562.107 30.7533 562.014 30.86C561.921 30.9533 561.801 31 561.654 31H559.334C559.187 31 559.061 30.9533 558.954 30.86C558.861 30.7667 558.814 30.6467 558.814 30.5V24.96C558.814 24.2933 558.674 23.8133 558.394 23.52C558.127 23.2267 557.761 23.08 557.294 23.08C556.867 23.08 556.514 23.2333 556.234 23.54C555.954 23.8333 555.814 24.3067 555.814 24.96V30.5C555.814 30.6333 555.767 30.7533 555.674 30.86C555.581 30.9533 555.461 31 555.314 31H552.994C552.847 31 552.727 30.9533 552.634 30.86C552.541 30.7667 552.494 30.6467 552.494 30.5V24.96C552.494 24.3067 552.347 23.8333 552.054 23.54C551.774 23.2333 551.414 23.08 550.974 23.08C550.547 23.08 550.187 23.2333 549.894 23.54C549.614 23.8333 549.474 24.3 549.474 24.94V30.5C549.474 30.6333 549.427 30.7533 549.334 30.86C549.241 30.9533 549.121 31 548.974 31H546.594Z" fill="white"/>
<path d="M639 31C643.418 31 647 27.4183 647 23C647 18.5817 643.418 15 639 15C634.582 15 631 18.5817 631 23C631 27.4183 634.582 31 639 31Z" stroke="white" stroke-width="2" stroke-linecap="round" stroke-linejoin="round"/>
<path d="M649 33L644.65 28.65" stroke="white" stroke-width="2" stroke-linecap="round" stroke-linejoin="round"/>
</svg>
