<svg width="163" height="444" viewBox="0 0 163 444" fill="none" xmlns="http://www.w3.org/2000/svg">
<path d="M29.7156 58.188L0.0221564 58.188L0.02216 139.294L99.2219 152.633L0.0226429 165.832L0.0226442 195.08L26.4924 191.804C19.7114 195.182 0.0226447 207.157 0.0226458 233.51C0.0110775 233.683 0.0226471 262.798 0.0226471 262.798L144.614 262.91L0.0226481 284.228L-5.30945e-06 322.534L149.816 344.588L0.0216872 344.577L0.0216888 381.238L84.174 394.454L0.0226534 407.327L0.022655 444L162.898 444L162.898 415.121L84.3923 415.121L162.896 401.985L162.896 386.631L84.3923 373.68L162.896 373.68L162.896 318.006L137.834 314.628L137.834 292.213L162.896 288.846L162.93 234.188L162.93 234.143L162.896 234.143L162.896 234.109L162.896 234.075L110.026 234.075L109.032 227.374L162.93 213.502L162.93 213.468L162.93 185.264L162.93 185.231L162.896 185.242L162.896 185.192L162.896 185.158L99.7247 203.362C92.7731 194.137 75.1193 183.72 58.231 186.492L58.22 186.492C58.4484 186.459 163 169.31 163 169.31L162.896 135.686L15.2629 112.71L162.896 112.71L162.896 58.1866L133.603 58.1866L133.603 84.0677L96.2489 84.0677L96.2489 58.1866L66.5096 58.1866L66.5096 84.0677L29.7156 84.0677L29.7156 58.188ZM112.005 311.226L42.3733 303.297L112.005 295.064L112.005 311.226ZM79.8532 227.281C80.9512 229.503 81.5002 231.82 81.5002 234.076L29.1097 234.076C29.1097 234.037 29.0991 233.992 29.0991 233.936C29.0876 231.674 29.7961 214.812 55.0189 214.812C68.2131 214.812 76.5263 220.547 79.8532 227.281ZM133.58 -5.83898e-06L162.873 -7.11942e-06L162.873 53.1883L-1.70829e-05 53.1883L-1.83347e-05 24.5506L133.58 24.5506L133.58 -5.83898e-06Z" fill="#AD1B20" fill-opacity="0.09"/>
</svg>
