<svg width="32" height="32" viewBox="0 0 32 32" fill="none" xmlns="http://www.w3.org/2000/svg">
<g clip-path="url(#clip0_101_7270)">
<path d="M28.16 0.639648H3.84001C2.07553 0.639648 0.640015 2.07517 0.640015 3.83965V28.1596C0.640015 29.9241 2.07553 31.3596 3.84001 31.3596H17.28V19.1996H13.44V15.3596H17.28V12.7996C17.28 8.91805 20.4384 5.75965 24.32 5.75965H26.24V9.59965H24.32C22.5555 9.59965 21.12 11.0352 21.12 12.7996V15.3596H26.1549L25.6749 19.1996H21.12V31.3596H28.16C29.9245 31.3596 31.36 29.9241 31.36 28.1596V3.83965C31.36 2.07517 29.9245 0.639648 28.16 0.639648ZM30.08 28.1596C30.08 29.2182 29.2186 30.0796 28.16 30.0796H22.4V20.4796H26.8051L27.6051 14.0796H22.4V12.7996C22.4 11.7411 23.2615 10.8796 24.32 10.8796H27.52V4.47965H24.32C19.7325 4.47965 16 8.21213 16 12.7996V14.0796H12.16V20.4796H16V30.0796H3.84001C2.78145 30.0796 1.92001 29.2182 1.92001 28.1596V3.83965C1.92001 2.78109 2.78145 1.91965 3.84001 1.91965H28.16C29.2186 1.91965 30.08 2.78109 30.08 3.83965V28.1596Z" fill="white"/>
</g>
<defs>
<clipPath id="clip0_101_7270">
<rect width="32" height="32" fill="white"/>
</clipPath>
</defs>
</svg>
