<svg width="19" height="18" viewBox="0 0 19 18" fill="none" xmlns="http://www.w3.org/2000/svg">
<path d="M13.9874 11.6525C15.0032 10.0843 15.4 8.19798 15.1016 6.35609C14.8032 4.51435 13.8306 2.84744 12.371 1.67617C10.9115 0.50463 9.06794 -0.0884733 7.19516 0.0106971C5.32231 0.109885 3.55267 0.894424 2.22631 2.21345C0.899957 3.53248 0.110964 5.2927 0.0108159 7.15552C-0.0891707 9.01841 0.506839 10.8523 1.68423 12.3042C2.86162 13.7562 4.53731 14.724 6.38883 15.021C8.24043 15.3182 10.1371 14.9238 11.7139 13.9137L15.3388 17.519C15.6392 17.8244 16.0498 17.9976 16.4793 18C16.9089 18.0023 17.3215 17.8336 17.6251 17.5315C17.9288 17.2294 18.0982 16.8189 18.0958 16.3917C18.0934 15.9645 17.9193 15.556 17.6122 15.2573L13.9874 11.6525ZM2.05468 7.5815C2.05468 6.11296 2.64114 4.70464 3.68503 3.66609C4.72906 2.62775 6.14489 2.04441 7.62138 2.04441C9.09788 2.04441 10.5136 2.62775 11.5577 3.66609C12.6016 4.70457 13.1881 6.11286 13.1881 7.5815C13.1881 9.05014 12.6016 10.4584 11.5577 11.4969C10.5137 12.5353 9.09788 13.1186 7.62138 13.1186C6.14551 13.117 4.73061 12.5331 3.6871 11.495C2.64358 10.457 2.05647 9.04959 2.05485 7.58167L2.05468 7.5815Z" fill="white"/>
</svg>
