<svg width="13" height="13" viewBox="0 0 13 13" fill="none" xmlns="http://www.w3.org/2000/svg">
<path d="M6.4346 12.8691C9.97822 12.8691 12.8696 9.97773 12.8696 6.43412C12.8696 2.8905 9.97846 -0.000671387 6.43484 -0.000671387C2.89123 -0.000671387 5.62668e-05 2.8905 5.62668e-05 6.43412C-3.71933e-05 9.97773 2.89123 12.8691 6.43484 12.8691H6.4346ZM6.4346 0.933427C9.474 0.933427 11.9353 3.4095 11.9353 6.43412C11.9353 9.47351 9.45922 11.9348 6.4346 11.9348C3.39521 11.9348 0.933915 9.45873 0.933915 6.43412C0.933915 3.39472 3.39521 0.933427 6.4346 0.933427Z" fill="#2B911A"/>
<path d="M6.4346 10.3335C8.58453 10.3335 10.334 8.58392 10.334 6.43412C10.334 4.28431 8.58441 2.53474 6.4346 2.53474C4.2848 2.53474 2.53522 4.28431 2.53522 6.43412C2.53522 8.58392 4.28489 10.3335 6.4346 10.3335ZM6.4346 3.45382C8.08038 3.45382 9.4149 4.78825 9.4149 6.43412C9.4149 8.07999 8.08047 9.41441 6.4346 9.41441C4.78873 9.41441 3.45431 8.07999 3.45431 6.43412C3.45431 4.78825 4.78873 3.45382 6.4346 3.45382Z" fill="#2B911A"/>
<path d="M6.43462 7.79834C7.19081 7.79834 7.79874 7.19041 7.79874 6.43422C7.79874 5.67803 7.19081 5.07011 6.43462 5.07011C5.67843 5.07011 5.07051 5.67803 5.07051 6.43422C5.0706 7.19041 5.67853 7.79834 6.43462 7.79834Z" fill="#434343"/>
</svg>
