<svg width="15" height="7" viewBox="0 0 15 7" fill="none" xmlns="http://www.w3.org/2000/svg">
<path d="M7.23707 6.99744C7.38445 6.98465 7.52391 6.92545 7.63535 6.82825L14.096 1.24064C14.243 1.12116 14.3352 0.947225 14.3516 0.758556C14.3678 0.569886 14.3069 0.38267 14.1825 0.239924C14.0581 0.0970532 13.8812 0.0108165 13.692 0.000950847C13.5029 -0.00891478 13.3179 0.0583174 13.1794 0.187428L7.17706 5.37686L1.17475 0.187428C1.03626 0.0583205 0.851246 -0.00891478 0.662103 0.000950847C0.47296 0.0108165 0.295977 0.0970501 0.171628 0.239924C0.0472694 0.382673 -0.0136299 0.56988 0.00256854 0.758556C0.0188899 0.947225 0.111094 1.12116 0.258105 1.24064L6.71878 6.82825C6.86153 6.95261 7.04861 7.01363 7.23716 6.99744H7.23707Z" fill="black"/>
</svg>
